<svg xmlns="http://www.w3.org/2000/svg" viewBox="0 0 771.87 192.26"><defs><style>.cls-1{fill:#2570b8;}.cls-2{fill:gray;}.cls-3{fill:#1c3a69;}.cls-4{fill:#fff;}.cls-5{fill:#df0918;}.cls-6{fill:#003770;}.cls-7{fill:#2570b7;}</style></defs><g id="Capa_2" data-name="Capa 2"><g id="Capa_1-2" data-name="Capa 1"><path class="cls-1" d="M733,192.26H377.78c-6.94,0-12.58-4.73-12.58-10.55v-36.4c0-5.82,5.64-10.56,12.58-10.56H733c6.93,0,12.58,4.74,12.58,10.56v36.4C745.56,187.53,739.91,192.26,733,192.26Zm-355.2-56.09c-6,0-10.88,4.1-10.88,9.14v36.4c0,5,4.88,9.13,10.88,9.13H733c6,0,10.88-4.1,10.88-9.13v-36.4c0-5-4.88-9.14-10.88-9.14Z"/><path class="cls-2" d="M204.18,34.13c-1,2.2-1.92,4.1-2.72,5.53a1,1,0,0,1-1.93-.49l-.39-2.35,13.31,82.45-57.1,8.26.83,5.15,62.46-9Z"/><path class="cls-3" d="M10.55,179.75Q0,169.15,0,149.65t10.55-30.1q10.54-10.6,31-10.61t31,10.61Q83,130.16,83,149.65t-10.55,30.1q-10.55,10.6-31,10.61T10.55,179.75Zm41.74-14q3.33-5.34,3.32-16.11t-3.32-16.17Q49,128.2,41.51,128.2t-10.78,5.28q-3.33,5.28-3.32,16.17t3.32,16.11q3.33,5.33,10.78,5.33T52.29,165.76Z"/><path class="cls-3" d="M94.32,188.63q-1.59-1.66-1.59-5.13V115.83q0-3.47,1.59-5.07t5.6-1.61h11.21a9.14,9.14,0,0,1,3.83.65,7.31,7.31,0,0,1,2.65,2.57L139,144.47V116q0-3.47,1.59-5.13t5.48-1.67h14q4,0,5.6,1.61t1.59,5.19v67.67q0,3.47-1.59,5.07c-1.06,1.08-2.93,1.61-5.6,1.61H148.86a9,9,0,0,1-3.83-.65,7.23,7.23,0,0,1-2.65-2.57L121,155v28.64q0,3.47-1.59,5.07c-1.06,1.08-2.93,1.61-5.6,1.61h-14C97.21,190.3,95.38,189.75,94.32,188.63Z"/><path class="cls-3" d="M179.52,188.64a7.1,7.1,0,0,1-1.63-5.13V116a7.1,7.1,0,0,1,1.63-5.13q1.64-1.66,5.62-1.67H214q18.14,0,26.41,7.1t8.28,21.43q0,14.31-8.28,21.36t-26.29,7H206.9v17.43a7.15,7.15,0,0,1-1.63,5.13c-1.09,1.11-3,1.67-5.74,1.67H185.14Q181.15,190.31,179.52,188.64Zm32-42.85a8.74,8.74,0,0,0,6.11-2q2.24-2,2.23-6.08t-2.23-6.21a8.79,8.79,0,0,0-6.11-2h-8.22v16.35Z"/><path class="cls-3" d="M260.79,188.64a7.2,7.2,0,0,1-1.61-5.14V116a7.19,7.19,0,0,1,1.61-5.13q1.62-1.66,5.55-1.67h44q3.81,0,5.19,1.61c.91,1.07,1.37,2.81,1.37,5.19v6.69q0,3.57-1.37,5.19t-5.19,1.61H287.82V139.7h16.1q3.81,0,5.19,1.61t1.37,5.2V153q0,3.59-1.37,5.19c-.92,1.08-2.65,1.61-5.19,1.61h-16.1V170h22.35c2.54,0,4.27.53,5.19,1.61s1.37,2.8,1.37,5.19v6.68q0,3.58-1.37,5.19t-5.19,1.62H266.34Q262.41,190.31,260.79,188.64Z"/><path class="cls-4" d="M199.14,36.81c-.18-1-.37-2.2-.53-3.13-.36-2.12,4.89-9.29,4.95-18.11a20,20,0,0,0-5.64-13.36,1,1,0,0,1,.72-1.76L113,.47l0,.14a.87.87,0,0,1,.25.3c.62,1.17-.94,14.56,1.54,33.72,1.72,13.34,7,39.34,7,39.34a5.61,5.61,0,0,0,7,4.39,5.89,5.89,0,0,0,3.93-6.82l-3.63-19.63,8.14-2.39L142.9,80a5.62,5.62,0,0,0,7,4.39,5.9,5.9,0,0,0,3.94-6.82L148.1,46.33l8.14-2.39,8,43.19a5.61,5.61,0,0,0,7,4.39,5.88,5.88,0,0,0,3.93-6.82l-8.12-43.94,8.14-2.4,7.44,40.26a5.61,5.61,0,0,0,7,4.38,5.88,5.88,0,0,0,3.94-6.81l-9.54-51.62a.09.09,0,0,1,.07-.11l4.65-.86a.11.11,0,0,1,.11.08L199,78.21a8.07,8.07,0,0,1-6.47,9.4l0-.06c-.22.06-.43.14-.65.19l-3.47.64a8.07,8.07,0,0,1-8.94-4.9.08.08,0,0,0-.16,0l.6,3.24a8.16,8.16,0,0,1-6.54,9.51l-3.29.6a8.16,8.16,0,0,1-9.51-6.54l-1.67-9a.08.08,0,0,0-.16,0,8.07,8.07,0,0,1-6.6,7.77l-3.38.62A8.08,8.08,0,0,1,143.6,89L150,128.31l62.5-9Z"/><path class="cls-5" d="M148.71,89.71l3.38-.62a8.07,8.07,0,0,0,6.6-7.77.08.08,0,0,1,.16,0l1.67,9A8.16,8.16,0,0,0,170,96.87l3.29-.6a8.16,8.16,0,0,0,6.54-9.51l-.6-3.24a.08.08,0,0,1,.16,0,8.07,8.07,0,0,0,8.94,4.9l3.47-.64c.22,0,.43-.13.65-.19l0,.06a8.07,8.07,0,0,0,6.47-9.4L188.9,23.68a.11.11,0,0,0-.11-.08l-4.65.86a.09.09,0,0,0-.07.11l9.54,51.62A5.88,5.88,0,0,1,189.67,83a5.61,5.61,0,0,1-7-4.38L175.2,38.36l-8.14,2.4,8.12,43.94a5.88,5.88,0,0,1-3.93,6.82,5.61,5.61,0,0,1-7-4.39l-8-43.19-8.14,2.39,5.77,31.21a5.9,5.9,0,0,1-3.94,6.82,5.62,5.62,0,0,1-7-4.39l-5.63-30.45-8.14,2.39,3.63,19.63a5.89,5.89,0,0,1-3.93,6.82,5.61,5.61,0,0,1-7-4.39s-5.27-26-7-39.34c-2.48-19.16-.92-32.55-1.54-33.72a.87.87,0,0,0-.25-.3c-1-.87-3.87-.82-4.52.21s-.88,19.26,1.16,34c1.84,13.24,7.77,42.6,7.77,42.6a8.07,8.07,0,0,0,9.4,6.47l.69-.13,2.78-.51.68-.13a8.06,8.06,0,0,0,6.6-7.77.09.09,0,0,1,.17,0l1.45,7.87a8.18,8.18,0,0,0,9.51,6.54Z"/><polygon class="cls-5" points="198.64 0.45 198.64 0.46 200.46 0.45 198.64 0.45"/><path class="cls-5" d="M208,9.61S206.83,3.92,202.9.69a1.1,1.1,0,0,0-.68-.24h-3.58a1,1,0,0,0-.72,1.76,20,20,0,0,1,5.64,13.36c-.06,8.82-5.31,16-4.95,18.11.16.93.35,2.11.53,3.13h0l.39,2.35a1,1,0,0,0,1.93.49c.8-1.43,1.76-3.33,2.72-5.53C207.27,27.08,210.35,17,208,9.61Z"/><path class="cls-6" d="M368.32,49.06a9.49,9.49,0,0,1-3.83-7.53h9.41a3.51,3.51,0,0,0,1,2.43,3.57,3.57,0,0,0,4.2.15,2,2,0,0,0,.79-1.68,2.38,2.38,0,0,0-1.3-2.16,23.31,23.31,0,0,0-4.23-1.71,37.09,37.09,0,0,1-5-2A9.52,9.52,0,0,1,366,33.72a7.83,7.83,0,0,1-1.42-4.88,8.93,8.93,0,0,1,1.53-5.25,9.49,9.49,0,0,1,4.23-3.3,15.78,15.78,0,0,1,6.12-1.13q5.54,0,8.84,2.59A9.3,9.3,0,0,1,388.84,29h-9.59a2.81,2.81,0,0,0-.88-2.16,3.12,3.12,0,0,0-2.13-.72,2.28,2.28,0,0,0-1.62.58,2.17,2.17,0,0,0-.63,1.67,2.07,2.07,0,0,0,.69,1.55,6.52,6.52,0,0,0,1.74,1.12q1,.48,3.06,1.2a38.62,38.62,0,0,1,5,2,10.16,10.16,0,0,1,3.37,2.84,7.24,7.24,0,0,1,1.42,4.61,9.32,9.32,0,0,1-1.42,5.09,9.71,9.71,0,0,1-4.09,3.55,14.29,14.29,0,0,1-6.32,1.31A14.84,14.84,0,0,1,368.32,49.06Z"/><path class="cls-6" d="M417.28,40.54h-16.7a4.62,4.62,0,0,0,1.15,3.08,3.5,3.5,0,0,0,2.59,1,3.25,3.25,0,0,0,3.15-2h9.4a11.1,11.1,0,0,1-2.27,4.66,11.81,11.81,0,0,1-4.25,3.22A14.55,14.55,0,0,1,398,50.12a11.32,11.32,0,0,1-4.55-4.5,13.87,13.87,0,0,1-1.64-6.88,13.9,13.9,0,0,1,1.62-6.87A11.24,11.24,0,0,1,398,27.4a15,15,0,0,1,13.3,0,11,11,0,0,1,4.5,4.39,13.41,13.41,0,0,1,1.62,6.73A16,16,0,0,1,417.28,40.54Zm-8.87-4.28a3.15,3.15,0,0,0-1.08-2.54,4.45,4.45,0,0,0-5.35,0,4.19,4.19,0,0,0-1.35,2.59Z"/><path class="cls-6" d="M434.76,26.86a7.46,7.46,0,0,1,2.94,2.79V26.14h8.83v25a14.8,14.8,0,0,1-1.35,6.41A10.47,10.47,0,0,1,441,62.09a13.89,13.89,0,0,1-7.23,1.71q-5.85,0-9.35-2.74a10.41,10.41,0,0,1-4-7.47h8.69a2.88,2.88,0,0,0,1.34,1.89,5.22,5.22,0,0,0,2.79.67q4.5,0,4.5-5V47.87a7.46,7.46,0,0,1-2.94,2.79,9.29,9.29,0,0,1-4.48,1,9.93,9.93,0,0,1-5.47-1.58,10.85,10.85,0,0,1-3.87-4.52,15.74,15.74,0,0,1-1.41-6.86,15.59,15.59,0,0,1,1.41-6.84,10.85,10.85,0,0,1,3.87-4.5,9.93,9.93,0,0,1,5.47-1.58A9.29,9.29,0,0,1,434.76,26.86Zm1.62,8a4.58,4.58,0,0,0-6.55,0,5.36,5.36,0,0,0-1.3,3.85,5.43,5.43,0,0,0,1.3,3.84A4.26,4.26,0,0,0,433.12,44a4.33,4.33,0,0,0,3.26-1.39,5.41,5.41,0,0,0,1.32-3.87A5.35,5.35,0,0,0,436.38,34.91Z"/><path class="cls-6" d="M477.35,26.14V51.38h-8.86v-3.6a8.46,8.46,0,0,1-3.11,2.77,9.58,9.58,0,0,1-4.55,1.06,8.76,8.76,0,0,1-6.95-2.91,11.56,11.56,0,0,1-2.54-7.89V26.14h8.78V39.68a4.84,4.84,0,0,0,1.14,3.4,4.37,4.37,0,0,0,6.1,0,4.88,4.88,0,0,0,1.13-3.4V26.14Z"/><path class="cls-6" d="M505.79,28.81a11.46,11.46,0,0,1,2.56,7.86V51.38h-8.82V37.84a4.86,4.86,0,0,0-1.12-3.4,3.87,3.87,0,0,0-3-1.24,4,4,0,0,0-3.1,1.24,4.86,4.86,0,0,0-1.13,3.4V51.38h-8.82V26.14h8.82v3.6A8.66,8.66,0,0,1,494.31,27a9.46,9.46,0,0,1,4.55-1.06A8.8,8.8,0,0,1,505.79,28.81Z"/><path class="cls-6" d="M513.15,31.9A10.68,10.68,0,0,1,517,27.4a10,10,0,0,1,5.49-1.58,9.17,9.17,0,0,1,4.34,1,7.62,7.62,0,0,1,3,2.77V18.08h8.87v33.3h-8.87V47.87a7.48,7.48,0,0,1-2.92,2.79,9.16,9.16,0,0,1-4.46,1A9.87,9.87,0,0,1,517,50.12a10.71,10.71,0,0,1-3.87-4.52,15.6,15.6,0,0,1-1.42-6.86A15.45,15.45,0,0,1,513.15,31.9Zm15.43,3a4.58,4.58,0,0,0-6.55,0,5.36,5.36,0,0,0-1.3,3.85,5.43,5.43,0,0,0,1.3,3.84,4.52,4.52,0,0,0,6.55,0,5.37,5.37,0,0,0,1.33-3.87A5.31,5.31,0,0,0,528.58,34.91Z"/><path class="cls-6" d="M543.7,31.9a10.85,10.85,0,0,1,3.87-4.5A9.91,9.91,0,0,1,553,25.82a9.24,9.24,0,0,1,4.5,1,7.48,7.48,0,0,1,2.92,2.79V26.14h8.82V51.38h-8.82V47.87a7.46,7.46,0,0,1-2.94,2.79,9.29,9.29,0,0,1-4.48,1,9.91,9.91,0,0,1-5.47-1.58,10.85,10.85,0,0,1-3.87-4.52,15.74,15.74,0,0,1-1.42-6.86A15.59,15.59,0,0,1,543.7,31.9Zm15.44,3a4.58,4.58,0,0,0-6.55,0,5.36,5.36,0,0,0-1.31,3.85,5.43,5.43,0,0,0,1.31,3.84A4.25,4.25,0,0,0,555.87,44a4.35,4.35,0,0,0,3.27-1.39,5.41,5.41,0,0,0,1.32-3.87A5.35,5.35,0,0,0,559.14,34.91Z"/><path class="cls-6" d="M591.65,26.72V31.9h10.12v6.7H591.65v5.72h11.47v7.06H582.83V19.66h20.29v7.06Z"/><path class="cls-6" d="M616.26,18.08v33.3h-8.82V18.08Z"/><path class="cls-6" d="M645.24,40.54H628.55a4.67,4.67,0,0,0,1.14,3.08,3.54,3.54,0,0,0,2.59,1,3.24,3.24,0,0,0,3.15-2h9.41a11,11,0,0,1-2.28,4.66,11.73,11.73,0,0,1-4.25,3.22,13.5,13.5,0,0,1-5.67,1.17A13.72,13.72,0,0,1,626,50.12a11.3,11.3,0,0,1-4.54-4.5,13.76,13.76,0,0,1-1.64-6.88,13.9,13.9,0,0,1,1.62-6.87A11.18,11.18,0,0,1,626,27.4a13.77,13.77,0,0,1,6.68-1.58,13.91,13.91,0,0,1,6.62,1.53,11,11,0,0,1,4.5,4.39,13.41,13.41,0,0,1,1.62,6.73A16,16,0,0,1,645.24,40.54Zm-8.86-4.28a3.15,3.15,0,0,0-1.08-2.54,4.46,4.46,0,0,0-5.36,0,4.29,4.29,0,0,0-1.35,2.59Z"/><path class="cls-6" d="M649.11,31.9a11.19,11.19,0,0,1,4.52-4.5,13.72,13.72,0,0,1,6.64-1.58,12.57,12.57,0,0,1,8.1,2.63,12.11,12.11,0,0,1,4.23,7.36h-9.36a3.13,3.13,0,0,0-3.15-2.47,3,3,0,0,0-2.63,1.37,6.93,6.93,0,0,0-1,4,7,7,0,0,0,1,4,3,3,0,0,0,2.63,1.39,3.08,3.08,0,0,0,3.15-2.47h9.36A12.15,12.15,0,0,1,668.37,49a12.47,12.47,0,0,1-8.1,2.66,13.72,13.72,0,0,1-6.64-1.58,11.19,11.19,0,0,1-4.52-4.5,14,14,0,0,1-1.62-6.88A13.89,13.89,0,0,1,649.11,31.9Z"/><path class="cls-6" d="M676.38,31.9a11.19,11.19,0,0,1,4.52-4.5,13.72,13.72,0,0,1,6.64-1.58,12.57,12.57,0,0,1,8.1,2.63,12.11,12.11,0,0,1,4.23,7.36h-9.36a3.13,3.13,0,0,0-3.15-2.47,3,3,0,0,0-2.63,1.37,6.93,6.93,0,0,0-1,4,7,7,0,0,0,1,4,3,3,0,0,0,2.63,1.39,3.08,3.08,0,0,0,3.15-2.47h9.36A12.15,12.15,0,0,1,695.64,49a12.47,12.47,0,0,1-8.1,2.66,13.72,13.72,0,0,1-6.64-1.58,11.19,11.19,0,0,1-4.52-4.5,14,14,0,0,1-1.62-6.88A13.89,13.89,0,0,1,676.38,31.9Z"/><path class="cls-6" d="M704.17,22.51a4.12,4.12,0,0,1-1.42-3.21A4.27,4.27,0,0,1,704.17,16a6,6,0,0,1,7.47,0,4.31,4.31,0,0,1,1.42,3.29,4.15,4.15,0,0,1-1.42,3.21,6.05,6.05,0,0,1-7.47,0Zm8.12,3.63V51.38h-8.82V26.14Z"/><path class="cls-6" d="M722.26,50.12a11.57,11.57,0,0,1-4.7-4.5,13.28,13.28,0,0,1-1.71-6.88,13.12,13.12,0,0,1,1.73-6.84,11.75,11.75,0,0,1,4.72-4.5,15.32,15.32,0,0,1,13.55,0,11.75,11.75,0,0,1,4.72,4.5,13.13,13.13,0,0,1,1.74,6.84,13.25,13.25,0,0,1-1.74,6.86,11.72,11.72,0,0,1-4.74,4.52A14.48,14.48,0,0,1,729,51.7,14.3,14.3,0,0,1,722.26,50.12Zm13.16-30.19-11.25,4.41v-6l11.25-5.08Zm-3.31,22.74a5.63,5.63,0,0,0,1.24-3.93,5.59,5.59,0,0,0-1.24-3.92,3.94,3.94,0,0,0-3-1.35,3.89,3.89,0,0,0-3,1.35,5.68,5.68,0,0,0-1.21,3.92,5.89,5.89,0,0,0,1.17,4,3.78,3.78,0,0,0,3,1.35A4,4,0,0,0,732.11,42.67Z"/><path class="cls-6" d="M769.3,28.81a11.46,11.46,0,0,1,2.57,7.86V51.38h-8.82V37.84a4.86,4.86,0,0,0-1.13-3.4,3.85,3.85,0,0,0-3-1.24,4,4,0,0,0-3.11,1.24,4.86,4.86,0,0,0-1.12,3.4V51.38h-8.82V26.14h8.82v3.6A8.66,8.66,0,0,1,757.83,27a9.42,9.42,0,0,1,4.54-1.06A8.8,8.8,0,0,1,769.3,28.81Z"/><path class="cls-6" d="M389.17,93.47a9.52,9.52,0,0,1-4,3.78,13.82,13.82,0,0,1-6.55,1.42h-4.36v10.71h-8.82V77.66h13.18a14.29,14.29,0,0,1,6.5,1.35,9.25,9.25,0,0,1,4,3.73,11,11,0,0,1,1.35,5.49A10.44,10.44,0,0,1,389.17,93.47Zm-7.67-5.24q0-3.47-3.73-3.46h-3.51v6.88h3.51Q381.51,91.65,381.5,88.23Z"/><path class="cls-6" d="M406.43,85.17A8.75,8.75,0,0,1,411,83.91v9.41H408.5a6.71,6.71,0,0,0-4.27,1.12c-.94.75-1.4,2.06-1.4,3.92v11H394V84.14h8.82v4.45A11.48,11.48,0,0,1,406.43,85.17Z"/><path class="cls-6" d="M438.06,98.54H421.37a4.62,4.62,0,0,0,1.15,3.08,3.5,3.5,0,0,0,2.58,1,3.24,3.24,0,0,0,3.15-2h9.41a11.1,11.1,0,0,1-2.27,4.66,11.85,11.85,0,0,1-4.26,3.22,13.5,13.5,0,0,1-5.67,1.17,13.65,13.65,0,0,1-6.63-1.58,11.32,11.32,0,0,1-4.55-4.5,15.31,15.31,0,0,1,0-13.75,11.24,11.24,0,0,1,4.52-4.47,15,15,0,0,1,13.3-.05,11,11,0,0,1,4.5,4.39,13.41,13.41,0,0,1,1.62,6.73A16,16,0,0,1,438.06,98.54Zm-8.86-4.28a3.15,3.15,0,0,0-1.08-2.54,4.46,4.46,0,0,0-5.36,0,4.29,4.29,0,0,0-1.35,2.59Z"/><path class="cls-6" d="M446.41,108.55a10.56,10.56,0,0,1-4.23-3.15,8.22,8.22,0,0,1-1.73-4.52H449a2.7,2.7,0,0,0,1.12,1.89,3.92,3.92,0,0,0,2.34.67,2.89,2.89,0,0,0,1.71-.45,1.38,1.38,0,0,0,.63-1.17,1.47,1.47,0,0,0-1-1.39,21.22,21.22,0,0,0-3.42-1,29.52,29.52,0,0,1-4.5-1.22,7.69,7.69,0,0,1-3.13-2.2,6.13,6.13,0,0,1-1.33-4.14,7.22,7.22,0,0,1,1.22-4.08,8.32,8.32,0,0,1,3.58-2.9,13.59,13.59,0,0,1,5.69-1.08q5,0,7.78,2.43A9.51,9.51,0,0,1,463,92.64h-8a3,3,0,0,0-1.05-1.87,3.56,3.56,0,0,0-2.23-.65,2.77,2.77,0,0,0-1.64.41,1.29,1.29,0,0,0-.57,1.12,1.49,1.49,0,0,0,1,1.37,17.3,17.3,0,0,0,3.33,1,29.41,29.41,0,0,1,4.57,1.31,8.13,8.13,0,0,1,3.19,2.31A6.45,6.45,0,0,1,463,102a6.51,6.51,0,0,1-1.28,4,8.49,8.49,0,0,1-3.64,2.76,14,14,0,0,1-5.56,1A15.47,15.47,0,0,1,446.41,108.55Z"/><path class="cls-6" d="M468,80.51a4.12,4.12,0,0,1-1.42-3.21A4.27,4.27,0,0,1,468,74a6,6,0,0,1,7.47,0,4.3,4.3,0,0,1,1.41,3.29,4.14,4.14,0,0,1-1.41,3.21,6.05,6.05,0,0,1-7.47,0Zm8.12,3.63v25.24h-8.82V84.14Z"/><path class="cls-6" d="M481.06,89.9A10.75,10.75,0,0,1,485,85.4a10,10,0,0,1,5.49-1.58,9.24,9.24,0,0,1,4.35,1,7.69,7.69,0,0,1,3,2.77V76.08h8.86v33.3h-8.86v-3.51a7.5,7.5,0,0,1-2.93,2.79,9.12,9.12,0,0,1-4.45,1,9.93,9.93,0,0,1-5.47-1.58,10.85,10.85,0,0,1-3.87-4.52,17.23,17.23,0,0,1,0-13.7Zm15.44,3a4.58,4.58,0,0,0-6.55,0,5.36,5.36,0,0,0-1.31,3.85,5.43,5.43,0,0,0,1.31,3.84,4.25,4.25,0,0,0,3.28,1.42,4.35,4.35,0,0,0,3.27-1.39,6.27,6.27,0,0,0,0-7.7Z"/><path class="cls-6" d="M535.62,98.54H518.93a4.62,4.62,0,0,0,1.15,3.08,3.5,3.5,0,0,0,2.58,1,3.24,3.24,0,0,0,3.15-2h9.41a11.1,11.1,0,0,1-2.27,4.66,11.85,11.85,0,0,1-4.26,3.22A13.5,13.5,0,0,1,523,109.7a13.65,13.65,0,0,1-6.63-1.58,11.32,11.32,0,0,1-4.55-4.5,15.31,15.31,0,0,1,0-13.75,11.24,11.24,0,0,1,4.52-4.47,15,15,0,0,1,13.3-.05,11,11,0,0,1,4.5,4.39,13.41,13.41,0,0,1,1.62,6.73A16,16,0,0,1,535.62,98.54Zm-8.86-4.28a3.15,3.15,0,0,0-1.08-2.54,4.46,4.46,0,0,0-5.36,0A4.29,4.29,0,0,0,519,94.26Z"/><path class="cls-6" d="M562.76,86.81a11.46,11.46,0,0,1,2.56,7.86v14.71H556.5V95.84a4.86,4.86,0,0,0-1.12-3.4,3.87,3.87,0,0,0-3-1.24,4,4,0,0,0-3.1,1.24,4.86,4.86,0,0,0-1.13,3.4v13.54h-8.82V84.14h8.82v3.6A8.66,8.66,0,0,1,551.28,85a9.46,9.46,0,0,1,4.55-1.06A8.8,8.8,0,0,1,562.76,86.81Z"/><path class="cls-6" d="M570.32,89.9a11.13,11.13,0,0,1,4.52-4.5,13.69,13.69,0,0,1,6.64-1.58,12.57,12.57,0,0,1,8.1,2.63,12.11,12.11,0,0,1,4.23,7.36h-9.36a3.13,3.13,0,0,0-3.15-2.47,3.06,3.06,0,0,0-2.64,1.37,7,7,0,0,0-1,4,7.13,7.13,0,0,0,1,4.05,3.23,3.23,0,0,0,5.79-1.08h9.36a12.15,12.15,0,0,1-4.23,7.33,12.47,12.47,0,0,1-8.1,2.66,13.69,13.69,0,0,1-6.64-1.58,11.13,11.13,0,0,1-4.52-4.5,15.33,15.33,0,0,1,0-13.72Z"/><path class="cls-6" d="M598.1,80.51a4.14,4.14,0,0,1-1.41-3.21A4.3,4.3,0,0,1,598.1,74a5.34,5.34,0,0,1,3.76-1.3,5.25,5.25,0,0,1,3.71,1.3A4.27,4.27,0,0,1,607,77.3a4.12,4.12,0,0,1-1.42,3.21,5.29,5.29,0,0,1-3.71,1.29A5.38,5.38,0,0,1,598.1,80.51Zm8.13,3.63v25.24h-8.82V84.14Z"/><path class="cls-6" d="M611.2,89.9a10.71,10.71,0,0,1,3.87-4.5,9.91,9.91,0,0,1,5.47-1.58,9.24,9.24,0,0,1,4.5,1A7.48,7.48,0,0,1,628,87.65V84.14h8.82v25.24H628v-3.51a7.43,7.43,0,0,1-3,2.79,9.22,9.22,0,0,1-4.47,1,9.91,9.91,0,0,1-5.47-1.58,10.71,10.71,0,0,1-3.87-4.52,17.23,17.23,0,0,1,0-13.7Zm15.43,3a4.56,4.56,0,0,0-6.54,0,5.36,5.36,0,0,0-1.31,3.85,5.43,5.43,0,0,0,1.31,3.84,4.25,4.25,0,0,0,3.28,1.42,4.31,4.31,0,0,0,3.26-1.39,6.24,6.24,0,0,0,0-7.7Z"/><path class="cls-6" d="M650.6,76.08v33.3h-8.82V76.08Z"/><path class="cls-7" d="M435.76,157.47l-7.59,17.61h-5.3l7.67-17h-9v-4.41h14.22Z"/><path class="cls-7" d="M453.73,159a5.05,5.05,0,0,1,2,2.37v-8.49h5.13v22.2h-5.13v-3a5.05,5.05,0,0,1-2,2.37,6.06,6.06,0,0,1-3.3.87,6.76,6.76,0,0,1-3.7-1,7.1,7.1,0,0,1-2.58-3,11.44,11.44,0,0,1,0-9.13,7.1,7.1,0,0,1,2.58-3,6.77,6.77,0,0,1,3.7-1A6.06,6.06,0,0,1,453.73,159Zm-4.3,4.71a5,5,0,0,0,0,6,3.77,3.77,0,0,0,5.31,0,4.81,4.81,0,0,0,0-6,3.51,3.51,0,0,0-2.66-1.1A3.44,3.44,0,0,0,449.43,163.71Z"/><path class="cls-7" d="M480.16,167.64H468.55a3.89,3.89,0,0,0,1,2.72,3.09,3.09,0,0,0,2.22.82,3,3,0,0,0,1.89-.57,2.66,2.66,0,0,0,1-1.47H480a7.11,7.11,0,0,1-1.44,3.17,7.67,7.67,0,0,1-2.82,2.19,9.67,9.67,0,0,1-8.17-.24,7.42,7.42,0,0,1-3-3,10.23,10.23,0,0,1,0-9.13,7.29,7.29,0,0,1,3-3,9.83,9.83,0,0,1,8.76,0,7.23,7.23,0,0,1,2.93,2.87,8.51,8.51,0,0,1,1,4.24A7.08,7.08,0,0,1,480.16,167.64ZM474.24,163a3.27,3.27,0,0,0-2.27-.83,3.36,3.36,0,0,0-2.34.84,3.52,3.52,0,0,0-1.05,2.46h6.54A3.07,3.07,0,0,0,474.24,163Z"/><path class="cls-7" d="M486.25,178.65h1.26a1.65,1.65,0,0,0,1.17-.34,1.56,1.56,0,0,0,.36-1.16V158.34h5.16v18.75q0,6-6,6h-1.95Zm3.12-23.11a2.61,2.61,0,0,1,0-3.84,3.59,3.59,0,0,1,4.44,0,2.61,2.61,0,0,1,0,3.84,3.62,3.62,0,0,1-4.44,0Z"/><path class="cls-7" d="M514.33,158.34v16.74h-5.16v-3a5.55,5.55,0,0,1-2.14,2.34,6.25,6.25,0,0,1-3.32.87,5.78,5.78,0,0,1-4.57-1.92,7.7,7.7,0,0,1-1.7-5.28v-9.72h5.1v9.09a3.75,3.75,0,0,0,.89,2.66,3.1,3.1,0,0,0,2.38.94,3.16,3.16,0,0,0,2.46-1,4,4,0,0,0,.9-2.82v-8.88Z"/><path class="cls-7" d="M533.07,160.08a7.7,7.7,0,0,1,1.69,5.28v9.72h-5.13V166a3.68,3.68,0,0,0-.88-2.62,3.09,3.09,0,0,0-2.36-1,3.19,3.19,0,0,0-2.47,1,4,4,0,0,0-.92,2.82v8.88h-5.13V158.34H523v3.06a5.53,5.53,0,0,1,2.15-2.37,6.27,6.27,0,0,1,3.34-.87A5.81,5.81,0,0,1,533.07,160.08Z"/><path class="cls-7" d="M538.51,151.7a3.59,3.59,0,0,1,4.44,0,2.61,2.61,0,0,1,0,3.84,3.62,3.62,0,0,1-4.44,0,2.61,2.61,0,0,1,0-3.84Zm4.77,6.64v16.74h-5.13V158.34Z"/><path class="cls-7" d="M559.11,159.17a7.58,7.58,0,0,1,3.09,3,9.84,9.84,0,0,1,0,9.12,7.6,7.6,0,0,1-3.09,3,10.19,10.19,0,0,1-8.93,0,7.56,7.56,0,0,1-3.1-3,9.77,9.77,0,0,1,0-9.12,7.54,7.54,0,0,1,3.1-3,10.1,10.1,0,0,1,8.93,0Zm-6.93,4.47a5.16,5.16,0,0,0,0,6.13,3.28,3.28,0,0,0,2.47,1,3.24,3.24,0,0,0,2.46-1,5.24,5.24,0,0,0,0-6.13,3.23,3.23,0,0,0-2.46-1.07A3.26,3.26,0,0,0,552.18,163.64Z"/><path class="cls-7" d="M581.65,159a5.05,5.05,0,0,1,2,2.37v-8.49h5.13v22.2h-5.13v-3a5.05,5.05,0,0,1-2,2.37,6.06,6.06,0,0,1-3.3.87,6.76,6.76,0,0,1-3.7-1,7.1,7.1,0,0,1-2.58-3,11.44,11.44,0,0,1,0-9.13,7.1,7.1,0,0,1,2.58-3,6.77,6.77,0,0,1,3.7-1A6.06,6.06,0,0,1,581.65,159Zm-4.3,4.71a5,5,0,0,0,0,6,3.77,3.77,0,0,0,5.31,0,4.81,4.81,0,0,0,0-6,3.51,3.51,0,0,0-2.66-1.1A3.44,3.44,0,0,0,577.35,163.71Z"/><path class="cls-7" d="M608.08,167.64H596.47a3.89,3.89,0,0,0,1,2.72,3.09,3.09,0,0,0,2.22.82,3,3,0,0,0,1.89-.57,2.66,2.66,0,0,0,1-1.47H608a7.11,7.11,0,0,1-1.44,3.17,7.67,7.67,0,0,1-2.82,2.19,9.67,9.67,0,0,1-8.17-.24,7.42,7.42,0,0,1-3-3,10.23,10.23,0,0,1,0-9.13,7.29,7.29,0,0,1,3-3,9.83,9.83,0,0,1,8.76,0A7.23,7.23,0,0,1,607.2,162a8.51,8.51,0,0,1,1,4.24A7.08,7.08,0,0,1,608.08,167.64ZM602.16,163a3.27,3.27,0,0,0-2.27-.83,3.36,3.36,0,0,0-2.34.84,3.52,3.52,0,0,0-1,2.46H603A3.07,3.07,0,0,0,602.16,163Z"/><path class="cls-7" d="M625.69,160.17q0-2.46-2.13-2.46a1.94,1.94,0,0,0-1.75.84,5.14,5.14,0,0,0-.62,2.61h-5a8,8,0,0,1,2.34-5.82,7.84,7.84,0,0,1,5.46-2,7.11,7.11,0,0,1,5.21,1.74,6.1,6.1,0,0,1,1.75,4.53,9.61,9.61,0,0,1-2.37,6.05,22.08,22.08,0,0,1-5.67,5h8.37v4.14H616.15V171Q625.69,164.19,625.69,160.17Z"/><path class="cls-7" d="M633.37,164.25a13.53,13.53,0,0,1,2-7.84q2-2.9,6.42-2.9t6.41,2.9a13.45,13.45,0,0,1,2,7.84,13.6,13.6,0,0,1-2,7.89q-2,2.91-6.41,2.91t-6.42-2.91A13.68,13.68,0,0,1,633.37,164.25Zm11.76,0a11.08,11.08,0,0,0-.67-4.36,2.63,2.63,0,0,0-2.66-1.52,2.67,2.67,0,0,0-2.7,1.53,10.9,10.9,0,0,0-.69,4.35,11.14,11.14,0,0,0,.69,4.4,2.66,2.66,0,0,0,2.7,1.54,2.62,2.62,0,0,0,2.66-1.54A11.37,11.37,0,0,0,645.13,164.25Z"/><path class="cls-7" d="M662,160.17q0-2.46-2.13-2.46a1.94,1.94,0,0,0-1.75.84,5.14,5.14,0,0,0-.62,2.61h-5a8,8,0,0,1,2.34-5.82,7.84,7.84,0,0,1,5.46-2,7.11,7.11,0,0,1,5.21,1.74,6.1,6.1,0,0,1,1.75,4.53,9.61,9.61,0,0,1-2.37,6.05,22.08,22.08,0,0,1-5.67,5h8.37v4.14H652.45V171Q662,164.19,662,160.17Z"/><path class="cls-7" d="M679.59,157.77a2.29,2.29,0,0,0-1.76-.66,2.53,2.53,0,0,0-2.47,1.61,11.92,11.92,0,0,0-.68,4.93,3.91,3.91,0,0,1,1.76-1.93,5.76,5.76,0,0,1,2.89-.71,6.26,6.26,0,0,1,4.74,1.82,7.21,7.21,0,0,1,1.74,5.2,8,8,0,0,1-.87,3.78,6.1,6.1,0,0,1-2.56,2.57,8.47,8.47,0,0,1-4.07.91q-4.65,0-6.42-2.88a15.23,15.23,0,0,1-1.77-8q0-5.88,1.89-8.65t6.15-2.78a6.56,6.56,0,0,1,5.1,1.91,7.72,7.72,0,0,1,2,4.81h-4.8A3.67,3.67,0,0,0,679.59,157.77ZM675.85,170A3.07,3.07,0,1,0,678.1,165a3.24,3.24,0,0,0-2.16.74,2.57,2.57,0,0,0-.87,2.08A3.2,3.2,0,0,0,675.85,170Z"/></g></g></svg>